PathFileType	4	(X/Y/Z)	C:/Users/opensim2020/Desktop/walking_exp_matlab/subject03_walking14_straight_04.trc	
DataRate	CameraRate	NumFrames	NumMarkers	Units	OrigDataRate	OrigDataStartFrame	OrigNumFrames	
100.00	100.00	6	47	mm	100.00	2310	177	
Frame#	Time	LFHD			RFHD			LBHD			RBHD			C7			T10			CLAV			STRN			RBAK			LSHO			LUPA			LELB			LFRM			LWRA			LWRB			LFIN			RSHO			RUPA			RELB			RFRM			RWRA			RWRB			RFIN			LASI			RASI			LPSI			RPSI			LTHI			LKNE			LTIB			LANK			LHEE			LTOE			RTHI			RKNE			RTIB			RANK			RHEE			RTOE			*39			*40			*41			*42			*43			*44			*45			*46			
		X1	Y1	Z1	X2	Y2	Z2	X3	Y3	Z3	X4	Y4	Z4	X5	Y5	Z5	X6	Y6	Z6	X7	Y7	Z7	X8	Y8	Z8	X9	Y9	Z9	X10	Y10	Z10	X11	Y11	Z11	X12	Y12	Z12	X13	Y13	Z13	X14	Y14	Z14	X15	Y15	Z15	X16	Y16	Z16	X17	Y17	Z17	X18	Y18	Z18	X19	Y19	Z19	X20	Y20	Z20	X21	Y21	Z21	X22	Y22	Z22	X23	Y23	Z23	X24	Y24	Z24	X25	Y25	Z25	X26	Y26	Z26	X27	Y27	Z27	X28	Y28	Z28	X29	Y29	Z29	X30	Y30	Z30	X31	Y31	Z31	X32	Y32	Z32	X33	Y33	Z33	X34	Y34	Z34	X35	Y35	Z35	X36	Y36	Z36	X37	Y37	Z37	X38	Y38	Z38	X39	Y39	Z39	X40	Y40	Z40	X41	Y41	Z41	X42	Y42	Z42	X43	Y43	Z43	X44	Y44	Z44	X45	Y45	Z45	X46	Y46	Z46	X47	Y47	Z47	

133	1.320	-940.74487	-667.28723	1618.26721	-1072.15674	-659.65216	1625.79810	-939.31122	-537.89624	1577.50659	-1068.97107	-535.32648	1584.44348	-1002.39880	-504.80612	1415.24500	-998.04779	-480.89752	1100.10156	-1002.49231	-628.53217	1343.29126	-994.07806	-677.46234	1179.95752	-1098.21680	-458.53580	1236.10754	-847.50873	-578.46857	1380.64795	-773.91742	-577.09454	1184.54126	-761.05469	-592.08600	1061.88635	-759.60919	-623.45013	934.68713	-787.11841	-646.72852	816.88586	-735.80969	-624.12793	821.89575	-745.65723	-641.07166	738.56738	-1161.36670	-577.99335	1367.63074	-1241.95789	-612.05646	1152.95483	-1257.15955	-652.76306	1048.91309	-1254.55701	-717.90643	929.14972	-1214.71118	-781.94885	855.32629	-1257.53638	-755.52100	836.32446	-1245.95996	-805.14301	782.05273	-885.23651	-654.56134	940.34955	-1121.90515	-646.62219	944.41449	-928.33264	-491.11469	954.80133	-1076.60815	-487.30002	971.33063	-830.57404	-677.70148	644.78607	-860.97070	-739.02960	477.50128	-862.33734	-699.19275	281.76422	-902.92010	-691.53412	72.53471	-944.65942	-653.05957	37.06486	-921.33936	-838.72113	38.70812	-1156.30811	-568.70911	649.05804	-1118.21729	-560.66071	470.32367	-1115.83618	-486.84641	290.72644	-1061.12610	-431.46136	81.49165	-1008.24884	-385.40442	56.80302	-1043.44922	-570.36920	30.25864				-986.48303	-583.89465	1682.40332																		 
134	1.330	-940.31781	-678.57727	1617.10010	-1071.71851	-670.95074	1624.47729	-938.90521	-549.55176	1575.84937	-1068.76892	-546.66321	1582.88123	-1001.87543	-516.43475	1413.65283	-996.95105	-492.71335	1098.60840	-1002.47137	-640.27893	1341.82727	-994.56793	-689.35565	1178.49622	-1097.49927	-469.86456	1234.73608	-847.15295	-591.15540	1378.97021	-773.81403	-587.79156	1182.74731	-760.35571	-601.31177	1060.07373	-758.04767	-629.34717	932.01563	-784.52856	-648.40601	813.06561	-732.93530	-626.75702	819.51886	-742.25903	-639.83490	734.93750	-1161.09949	-589.06573	1366.26392	-1242.39160	-624.45831	1152.19751	-1257.71777	-666.84351	1049.05566	-1254.31580	-735.71185	931.56427	-1213.89758	-802.37158	860.54889	-1256.27869	-776.36230	840.00543	-1244.29907	-827.89508	787.61542	-885.78253	-668.39423	938.72211	-1122.68433	-657.09296	942.81519	-927.16748	-503.82956	953.39349	-1074.98779	-498.02960	970.23181	-830.99811	-690.76477	642.89026	-862.82758	-752.17657	475.77463	-863.89374	-722.17615	279.16873	-903.15967	-728.74982	69.41509	-945.15637	-692.67279	32.93085	-921.23322	-878.34253	41.12185	-1156.26184	-576.73059	648.21045	-1118.37512	-566.73730	469.55469	-1115.65637	-490.54388	290.82599	-1060.41846	-432.36526	82.07817	-1007.88214	-385.73224	58.15092	-1043.23157	-570.42462	30.07929				-985.89777	-595.02490	1681.06689																		 
135	1.340	-939.99353	-689.83154	1615.57764	-1071.54163	-682.18121	1622.96570	-938.67023	-560.96759	1574.10938	-1068.43079	-558.01904	1581.07300	-1000.76215	-528.46625	1411.92615	-995.63885	-504.61447	1096.95776	-1002.43311	-652.10291	1340.15637	-995.09705	-701.30872	1176.80566	-1096.61951	-481.21118	1233.08655	-846.83453	-603.83301	1377.16028	-773.35028	-599.06732	1180.79407	-759.52222	-610.79572	1058.00781	-756.35303	-635.45105	929.35730	-782.69580	-649.21387	808.93463	-729.99841	-629.86060	817.28546	-739.01794	-638.68573	731.84857	-1161.01440	-600.20612	1364.81665	-1242.77515	-636.63525	1151.16895	-1258.23450	-680.56744	1048.96997	-1254.00208	-753.05896	933.80505	-1213.10168	-822.11694	865.57672	-1255.00854	-796.66132	843.62262	-1242.69592	-850.06073	793.24866	-886.46484	-681.81671	936.56757	-1123.60107	-667.48553	940.84106	-925.94824	-516.93774	951.67090	-1073.97156	-509.74506	968.09045	-831.92706	-702.37799	640.28851	-864.99835	-763.95081	473.58432	-865.42285	-744.12561	277.00800	-902.77808	-764.96936	67.58157	-945.47571	-731.65680	30.53517	-920.83398	-916.93683	44.69365	-1156.22742	-584.88147	647.28387	-1118.32849	-573.00800	468.64319	-1115.48621	-494.41806	290.87589	-1060.08521	-433.04712	83.04158	-1007.55817	-386.07108	59.56372	-1043.41858	-570.55292	30.21520				-985.00916	-606.15906	1678.87317																		 
136	1.350	-939.64978	-701.12738	1613.99048	-1071.08789	-693.45624	1621.72791	-938.22998	-572.55621	1572.20020	-1068.11194	-569.39404	1579.18774	-1000.29309	-540.27264	1409.93909	-994.25165	-516.75348	1095.10828	-1002.42389	-664.13263	1338.34729	-995.63647	-713.34955	1174.94531	-1095.74719	-492.62836	1231.36377	-846.50275	-616.59192	1375.18103	-772.73792	-610.46893	1178.77722	-758.53137	-620.06622	1056.04077	-754.57666	-641.77374	926.71881	-780.01996	-651.88843	805.55927	-727.30310	-633.11536	815.02582	-735.72571	-637.93488	728.92450	-1160.64429	-611.46735	1363.03149	-1243.07166	-648.63641	1149.93335	-1258.61475	-694.13647	1048.63098	-1253.53784	-769.95154	935.85126	-1212.25085	-841.19415	870.48944	-1253.60901	-816.38647	847.00409	-1241.19324	-871.59412	798.88837	-887.02295	-695.28473	934.31885	-1124.13538	-678.46411	939.12775	-924.58118	-530.00806	949.84747	-1072.50293	-521.13458	966.37317	-832.71631	-713.52899	637.15643	-867.33051	-775.86383	471.13742	-866.89825	-765.29517	275.37271	-901.88013	-799.89563	67.00408	-944.41187	-768.50763	29.30947	-920.08679	-953.83716	49.34926	-1156.39221	-593.25861	646.30872	-1118.22180	-579.41357	467.68939	-1115.23059	-498.38718	290.90454	-1059.67737	-433.69318	84.07740	-1007.14813	-386.38171	61.07163	-1043.06165	-570.65009	30.25063				-984.40228	-617.46198	1676.94385																		 
137	1.360	-939.21405	-712.40125	1612.30835	-1070.66406	-704.67963	1620.06897	-937.40955	-584.14215	1570.02539	-1067.62085	-580.76288	1577.11951	-1000.01526	-552.12823	1407.94226	-992.64050	-528.98511	1093.10632	-1002.35620	-676.19287	1336.35376	-996.19208	-725.42554	1172.94739	-1094.72021	-504.12210	1229.46179	-846.14667	-629.40338	1373.11816	-772.01965	-621.85022	1176.62268	-757.53711	-629.96985	1054.17493	-752.74939	-648.35217	924.16522	-777.13037	-655.62122	802.73724	-724.34625	-637.41046	813.05133	-732.39813	-637.90851	726.43152	-1160.35303	-622.78259	1361.20691	-1243.29150	-660.46655	1148.45679	-1258.92407	-707.46967	1048.11841	-1253.03064	-786.42883	937.67523	-1211.27478	-859.77051	875.08716	-1252.07666	-835.47504	850.23785	-1239.45728	-892.26672	804.22034	-887.44580	-708.81470	931.86786	-1124.66003	-689.56995	937.29602	-923.11725	-543.25720	947.85071	-1070.95532	-532.74274	964.64417	-833.42804	-723.97803	633.55200	-869.91565	-787.36749	468.62238	-868.24133	-786.03290	274.33795	-901.08502	-833.45764	66.99855	-943.17096	-804.23596	28.14697	-919.49994	-989.08624	55.60670	-1156.22021	-601.69238	645.20032	-1118.24585	-586.00519	466.63913	-1115.04883	-502.39917	290.92328	-1059.27881	-434.39194	85.09856	-1006.72095	-386.79120	62.68970	-1043.15417	-570.71466	30.27099				-984.29333	-628.07361	1675.44531																		 
138	1.370	-938.71301	-723.74731	1610.52039	-1070.19275	-715.93304	1618.36511	-937.10126	-595.63947	1567.93604	-1067.18726	-592.19031	1575.00769	-998.82684	-564.38702	1405.76733	-991.21100	-541.51074	1091.05884	-1002.25739	-688.38641	1334.26721	-996.70782	-737.72845	1170.84692	-1093.71252	-515.72955	1227.42395	-845.76617	-642.36249	1370.96057	-771.32684	-633.14270	1174.41040	-756.36151	-639.38086	1051.91467	-750.84393	-655.37201	921.68433	-774.87756	-659.30377	799.64740	-721.62231	-641.67615	811.00653	-729.14423	-638.51697	724.20142	-1160.03967	-634.17731	1359.24817	-1243.42126	-672.28259	1146.82288	-1259.14697	-720.59052	1047.35645	-1252.42480	-802.49792	939.27106	-1210.22949	-877.66064	879.40491	-1250.51794	-854.02203	853.25696	-1237.96411	-912.40521	809.55035	-887.78442	-722.25525	929.30951	-1124.48535	-701.12793	935.62537	-921.14844	-555.77466	946.39539	-1069.33521	-544.47833	962.90973	-833.79456	-734.23846	629.58917	-872.76807	-798.74829	465.79419	-869.47003	-806.44403	273.79996	-898.93097	-865.44446	69.06910	-940.98047	-838.31396	28.53363	-919.24823	-1022.06744	62.84427	-1156.02466	-610.27802	644.04309	-1118.32410	-592.82843	465.49088	-1114.89160	-506.45184	290.96567	-1059.01123	-435.01270	86.41387	-1006.32935	-387.28452	64.45181	-1043.10974	-570.77600	30.20267				-983.54767	-639.33411	1673.44971																		 
